<?xml version="1.0" encoding="UTF-8" standalone="no"?>
<!DOCTYPE svg PUBLIC "-//W3C//DTD SVG 1.1//EN"
 "http://www.w3.org/Graphics/SVG/1.1/DTD/svg11.dtd">
<!-- Generated by graphviz version 2.50.0 (0)
 -->
<!-- Pages: 1 -->
<svg width="512pt" height="290pt"
 viewBox="0.00 0.00 512.00 290.00" xmlns="http://www.w3.org/2000/svg" xmlns:xlink="http://www.w3.org/1999/xlink">
<g id="graph0" class="graph" transform="scale(1 1) rotate(0) translate(4 286)">
<polygon fill="white" stroke="transparent" points="-4,4 -4,-286 508,-286 508,4 -4,4"/>
<!-- 4909666256 -->
<g id="node1" class="node">
<title>4909666256</title>
<polygon fill="none" stroke="red" points="261,-212.5 261,-281.5 330,-281.5 330,-212.5 261,-212.5"/>
<text text-anchor="middle" x="272.5" y="-266.3" font-family="Times,serif" font-size="14.00">1</text>
<polyline fill="none" stroke="red" points="284,-258.5 284,-281.5 "/>
<text text-anchor="middle" x="295.5" y="-266.3" font-family="Times,serif" font-size="14.00">8</text>
<polyline fill="none" stroke="red" points="307,-258.5 307,-281.5 "/>
<text text-anchor="middle" x="318.5" y="-266.3" font-family="Times,serif" font-size="14.00">2</text>
<polyline fill="none" stroke="red" points="261,-258.5 330,-258.5 "/>
<text text-anchor="middle" x="272.5" y="-243.3" font-family="Times,serif" font-size="14.00">0</text>
<polyline fill="none" stroke="red" points="284,-235.5 284,-258.5 "/>
<text text-anchor="middle" x="295.5" y="-243.3" font-family="Times,serif" font-size="14.00">4</text>
<polyline fill="none" stroke="red" points="307,-235.5 307,-258.5 "/>
<text text-anchor="middle" x="318.5" y="-243.3" font-family="Times,serif" font-size="14.00">3</text>
<polyline fill="none" stroke="red" points="261,-235.5 330,-235.5 "/>
<text text-anchor="middle" x="272.5" y="-220.3" font-family="Times,serif" font-size="14.00">7</text>
<polyline fill="none" stroke="red" points="284,-212.5 284,-235.5 "/>
<text text-anchor="middle" x="295.5" y="-220.3" font-family="Times,serif" font-size="14.00">6</text>
<polyline fill="none" stroke="red" points="307,-212.5 307,-235.5 "/>
<text text-anchor="middle" x="318.5" y="-220.3" font-family="Times,serif" font-size="14.00">5</text>
</g>
<!-- 4909663952 -->
<g id="node2" class="node">
<title>4909663952</title>
<polygon fill="none" stroke="red" points="87,-106.5 87,-175.5 156,-175.5 156,-106.5 87,-106.5"/>
<text text-anchor="middle" x="98.5" y="-160.3" font-family="Times,serif" font-size="14.00">1</text>
<polyline fill="none" stroke="red" points="110,-152.5 110,-175.5 "/>
<text text-anchor="middle" x="121.5" y="-160.3" font-family="Times,serif" font-size="14.00">8</text>
<polyline fill="none" stroke="red" points="133,-152.5 133,-175.5 "/>
<text text-anchor="middle" x="144.5" y="-160.3" font-family="Times,serif" font-size="14.00">2</text>
<polyline fill="none" stroke="red" points="87,-152.5 156,-152.5 "/>
<text text-anchor="middle" x="98.5" y="-137.3" font-family="Times,serif" font-size="14.00">7</text>
<polyline fill="none" stroke="red" points="110,-129.5 110,-152.5 "/>
<text text-anchor="middle" x="121.5" y="-137.3" font-family="Times,serif" font-size="14.00">4</text>
<polyline fill="none" stroke="red" points="133,-129.5 133,-152.5 "/>
<text text-anchor="middle" x="144.5" y="-137.3" font-family="Times,serif" font-size="14.00">3</text>
<polyline fill="none" stroke="red" points="87,-129.5 156,-129.5 "/>
<text text-anchor="middle" x="98.5" y="-114.3" font-family="Times,serif" font-size="14.00">0</text>
<polyline fill="none" stroke="red" points="110,-106.5 110,-129.5 "/>
<text text-anchor="middle" x="121.5" y="-114.3" font-family="Times,serif" font-size="14.00">6</text>
<polyline fill="none" stroke="red" points="133,-106.5 133,-129.5 "/>
<text text-anchor="middle" x="144.5" y="-114.3" font-family="Times,serif" font-size="14.00">5</text>
</g>
<!-- 4909666256&#45;&gt;4909663952 -->
<g id="edge1" class="edge">
<title>4909666256&#45;&gt;4909663952</title>
<path fill="none" stroke="black" d="M260.71,-225.2C233.2,-208.77 194.66,-185.73 165.1,-168.06"/>
<polygon fill="black" stroke="black" points="166.61,-164.89 156.23,-162.76 163.02,-170.89 166.61,-164.89"/>
</g>
<!-- 4909663040 -->
<g id="node3" class="node">
<title>4909663040</title>
<polygon fill="none" stroke="black" points="261,-106.5 261,-175.5 330,-175.5 330,-106.5 261,-106.5"/>
<text text-anchor="middle" x="272.5" y="-160.3" font-family="Times,serif" font-size="14.00">1</text>
<polyline fill="none" stroke="black" points="284,-152.5 284,-175.5 "/>
<text text-anchor="middle" x="295.5" y="-160.3" font-family="Times,serif" font-size="14.00">8</text>
<polyline fill="none" stroke="black" points="307,-152.5 307,-175.5 "/>
<text text-anchor="middle" x="318.5" y="-160.3" font-family="Times,serif" font-size="14.00">2</text>
<polyline fill="none" stroke="black" points="261,-152.5 330,-152.5 "/>
<text text-anchor="middle" x="272.5" y="-137.3" font-family="Times,serif" font-size="14.00">4</text>
<polyline fill="none" stroke="black" points="284,-129.5 284,-152.5 "/>
<text text-anchor="middle" x="295.5" y="-137.3" font-family="Times,serif" font-size="14.00">0</text>
<polyline fill="none" stroke="black" points="307,-129.5 307,-152.5 "/>
<text text-anchor="middle" x="318.5" y="-137.3" font-family="Times,serif" font-size="14.00">3</text>
<polyline fill="none" stroke="black" points="261,-129.5 330,-129.5 "/>
<text text-anchor="middle" x="272.5" y="-114.3" font-family="Times,serif" font-size="14.00">7</text>
<polyline fill="none" stroke="black" points="284,-106.5 284,-129.5 "/>
<text text-anchor="middle" x="295.5" y="-114.3" font-family="Times,serif" font-size="14.00">6</text>
<polyline fill="none" stroke="black" points="307,-106.5 307,-129.5 "/>
<text text-anchor="middle" x="318.5" y="-114.3" font-family="Times,serif" font-size="14.00">5</text>
</g>
<!-- 4909666256&#45;&gt;4909663040 -->
<g id="edge2" class="edge">
<title>4909666256&#45;&gt;4909663040</title>
<path fill="none" stroke="black" d="M295.5,-212.23C295.5,-203.79 295.5,-194.62 295.5,-185.77"/>
<polygon fill="black" stroke="black" points="299,-185.6 295.5,-175.6 292,-185.6 299,-185.6"/>
</g>
<!-- 4909663712 -->
<g id="node4" class="node">
<title>4909663712</title>
<polygon fill="none" stroke="black" points="391,-106.5 391,-175.5 460,-175.5 460,-106.5 391,-106.5"/>
<text text-anchor="middle" x="402.5" y="-160.3" font-family="Times,serif" font-size="14.00">0</text>
<polyline fill="none" stroke="black" points="414,-152.5 414,-175.5 "/>
<text text-anchor="middle" x="425.5" y="-160.3" font-family="Times,serif" font-size="14.00">8</text>
<polyline fill="none" stroke="black" points="437,-152.5 437,-175.5 "/>
<text text-anchor="middle" x="448.5" y="-160.3" font-family="Times,serif" font-size="14.00">2</text>
<polyline fill="none" stroke="black" points="391,-152.5 460,-152.5 "/>
<text text-anchor="middle" x="402.5" y="-137.3" font-family="Times,serif" font-size="14.00">1</text>
<polyline fill="none" stroke="black" points="414,-129.5 414,-152.5 "/>
<text text-anchor="middle" x="425.5" y="-137.3" font-family="Times,serif" font-size="14.00">4</text>
<polyline fill="none" stroke="black" points="437,-129.5 437,-152.5 "/>
<text text-anchor="middle" x="448.5" y="-137.3" font-family="Times,serif" font-size="14.00">3</text>
<polyline fill="none" stroke="black" points="391,-129.5 460,-129.5 "/>
<text text-anchor="middle" x="402.5" y="-114.3" font-family="Times,serif" font-size="14.00">7</text>
<polyline fill="none" stroke="black" points="414,-106.5 414,-129.5 "/>
<text text-anchor="middle" x="425.5" y="-114.3" font-family="Times,serif" font-size="14.00">6</text>
<polyline fill="none" stroke="black" points="437,-106.5 437,-129.5 "/>
<text text-anchor="middle" x="448.5" y="-114.3" font-family="Times,serif" font-size="14.00">5</text>
</g>
<!-- 4909666256&#45;&gt;4909663712 -->
<g id="edge3" class="edge">
<title>4909666256&#45;&gt;4909663712</title>
<path fill="none" stroke="black" d="M330.34,-218.13C346.37,-205.31 365.54,-189.97 382.46,-176.43"/>
<polygon fill="black" stroke="black" points="384.94,-178.93 390.57,-169.95 380.57,-173.46 384.94,-178.93"/>
</g>
<!-- 4909663616 -->
<g id="node5" class="node">
<title>4909663616</title>
<polygon fill="none" stroke="red" points="0,-0.5 0,-69.5 69,-69.5 69,-0.5 0,-0.5"/>
<text text-anchor="middle" x="11.5" y="-54.3" font-family="Times,serif" font-size="14.00">1</text>
<polyline fill="none" stroke="red" points="23,-46.5 23,-69.5 "/>
<text text-anchor="middle" x="34.5" y="-54.3" font-family="Times,serif" font-size="14.00">8</text>
<polyline fill="none" stroke="red" points="46,-46.5 46,-69.5 "/>
<text text-anchor="middle" x="57.5" y="-54.3" font-family="Times,serif" font-size="14.00">2</text>
<polyline fill="none" stroke="red" points="0,-46.5 69,-46.5 "/>
<text text-anchor="middle" x="11.5" y="-31.3" font-family="Times,serif" font-size="14.00">7</text>
<polyline fill="none" stroke="red" points="23,-23.5 23,-46.5 "/>
<text text-anchor="middle" x="34.5" y="-31.3" font-family="Times,serif" font-size="14.00">4</text>
<polyline fill="none" stroke="red" points="46,-23.5 46,-46.5 "/>
<text text-anchor="middle" x="57.5" y="-31.3" font-family="Times,serif" font-size="14.00">3</text>
<polyline fill="none" stroke="red" points="0,-23.5 69,-23.5 "/>
<text text-anchor="middle" x="11.5" y="-8.3" font-family="Times,serif" font-size="14.00">6</text>
<polyline fill="none" stroke="red" points="23,-0.5 23,-23.5 "/>
<text text-anchor="middle" x="34.5" y="-8.3" font-family="Times,serif" font-size="14.00">0</text>
<polyline fill="none" stroke="red" points="46,-0.5 46,-23.5 "/>
<text text-anchor="middle" x="57.5" y="-8.3" font-family="Times,serif" font-size="14.00">5</text>
</g>
<!-- 4909663952&#45;&gt;4909663616 -->
<g id="edge4" class="edge">
<title>4909663952&#45;&gt;4909663616</title>
<path fill="none" stroke="black" d="M93.25,-106.23C85.58,-97.06 77.18,-87.02 69.19,-77.47"/>
<polygon fill="black" stroke="black" points="71.71,-75.02 62.6,-69.6 66.34,-79.51 71.71,-75.02"/>
</g>
<!-- 4909663520 -->
<g id="node6" class="node">
<title>4909663520</title>
<polygon fill="none" stroke="black" points="87,-0.5 87,-69.5 156,-69.5 156,-0.5 87,-0.5"/>
<text text-anchor="middle" x="98.5" y="-54.3" font-family="Times,serif" font-size="14.00">1</text>
<polyline fill="none" stroke="black" points="110,-46.5 110,-69.5 "/>
<text text-anchor="middle" x="121.5" y="-54.3" font-family="Times,serif" font-size="14.00">8</text>
<polyline fill="none" stroke="black" points="133,-46.5 133,-69.5 "/>
<text text-anchor="middle" x="144.5" y="-54.3" font-family="Times,serif" font-size="14.00">2</text>
<polyline fill="none" stroke="black" points="87,-46.5 156,-46.5 "/>
<text text-anchor="middle" x="98.5" y="-31.3" font-family="Times,serif" font-size="14.00">0</text>
<polyline fill="none" stroke="black" points="110,-23.5 110,-46.5 "/>
<text text-anchor="middle" x="121.5" y="-31.3" font-family="Times,serif" font-size="14.00">4</text>
<polyline fill="none" stroke="black" points="133,-23.5 133,-46.5 "/>
<text text-anchor="middle" x="144.5" y="-31.3" font-family="Times,serif" font-size="14.00">3</text>
<polyline fill="none" stroke="black" points="87,-23.5 156,-23.5 "/>
<text text-anchor="middle" x="98.5" y="-8.3" font-family="Times,serif" font-size="14.00">7</text>
<polyline fill="none" stroke="black" points="110,-0.5 110,-23.5 "/>
<text text-anchor="middle" x="121.5" y="-8.3" font-family="Times,serif" font-size="14.00">6</text>
<polyline fill="none" stroke="black" points="133,-0.5 133,-23.5 "/>
<text text-anchor="middle" x="144.5" y="-8.3" font-family="Times,serif" font-size="14.00">5</text>
</g>
<!-- 4909663952&#45;&gt;4909663520 -->
<g id="edge5" class="edge">
<title>4909663952&#45;&gt;4909663520</title>
<path fill="none" stroke="black" d="M121.5,-106.23C121.5,-97.79 121.5,-88.62 121.5,-79.77"/>
<polygon fill="black" stroke="black" points="125,-79.6 121.5,-69.6 118,-79.6 125,-79.6"/>
</g>
<!-- 4909663424 -->
<g id="node7" class="node">
<title>4909663424</title>
<polygon fill="none" stroke="black" points="174,-0.5 174,-69.5 243,-69.5 243,-0.5 174,-0.5"/>
<text text-anchor="middle" x="185.5" y="-54.3" font-family="Times,serif" font-size="14.00">1</text>
<polyline fill="none" stroke="black" points="197,-46.5 197,-69.5 "/>
<text text-anchor="middle" x="208.5" y="-54.3" font-family="Times,serif" font-size="14.00">8</text>
<polyline fill="none" stroke="black" points="220,-46.5 220,-69.5 "/>
<text text-anchor="middle" x="231.5" y="-54.3" font-family="Times,serif" font-size="14.00">2</text>
<polyline fill="none" stroke="black" points="174,-46.5 243,-46.5 "/>
<text text-anchor="middle" x="185.5" y="-31.3" font-family="Times,serif" font-size="14.00">4</text>
<polyline fill="none" stroke="black" points="197,-23.5 197,-46.5 "/>
<text text-anchor="middle" x="208.5" y="-31.3" font-family="Times,serif" font-size="14.00">6</text>
<polyline fill="none" stroke="black" points="220,-23.5 220,-46.5 "/>
<text text-anchor="middle" x="231.5" y="-31.3" font-family="Times,serif" font-size="14.00">3</text>
<polyline fill="none" stroke="black" points="174,-23.5 243,-23.5 "/>
<text text-anchor="middle" x="185.5" y="-8.3" font-family="Times,serif" font-size="14.00">7</text>
<polyline fill="none" stroke="black" points="197,-0.5 197,-23.5 "/>
<text text-anchor="middle" x="208.5" y="-8.3" font-family="Times,serif" font-size="14.00">0</text>
<polyline fill="none" stroke="black" points="220,-0.5 220,-23.5 "/>
<text text-anchor="middle" x="231.5" y="-8.3" font-family="Times,serif" font-size="14.00">5</text>
</g>
<!-- 4909663040&#45;&gt;4909663424 -->
<g id="edge6" class="edge">
<title>4909663040&#45;&gt;4909663424</title>
<path fill="none" stroke="black" d="M267.25,-106.23C259.58,-97.06 251.18,-87.02 243.19,-77.47"/>
<polygon fill="black" stroke="black" points="245.71,-75.02 236.6,-69.6 240.34,-79.51 245.71,-75.02"/>
</g>
<!-- 4909663232 -->
<g id="node8" class="node">
<title>4909663232</title>
<polygon fill="none" stroke="black" points="261,-0.5 261,-69.5 330,-69.5 330,-0.5 261,-0.5"/>
<text text-anchor="middle" x="272.5" y="-54.3" font-family="Times,serif" font-size="14.00">1</text>
<polyline fill="none" stroke="black" points="284,-46.5 284,-69.5 "/>
<text text-anchor="middle" x="295.5" y="-54.3" font-family="Times,serif" font-size="14.00">8</text>
<polyline fill="none" stroke="black" points="307,-46.5 307,-69.5 "/>
<text text-anchor="middle" x="318.5" y="-54.3" font-family="Times,serif" font-size="14.00">2</text>
<polyline fill="none" stroke="black" points="261,-46.5 330,-46.5 "/>
<text text-anchor="middle" x="272.5" y="-31.3" font-family="Times,serif" font-size="14.00">4</text>
<polyline fill="none" stroke="black" points="284,-23.5 284,-46.5 "/>
<text text-anchor="middle" x="295.5" y="-31.3" font-family="Times,serif" font-size="14.00">3</text>
<polyline fill="none" stroke="black" points="307,-23.5 307,-46.5 "/>
<text text-anchor="middle" x="318.5" y="-31.3" font-family="Times,serif" font-size="14.00">0</text>
<polyline fill="none" stroke="black" points="261,-23.5 330,-23.5 "/>
<text text-anchor="middle" x="272.5" y="-8.3" font-family="Times,serif" font-size="14.00">7</text>
<polyline fill="none" stroke="black" points="284,-0.5 284,-23.5 "/>
<text text-anchor="middle" x="295.5" y="-8.3" font-family="Times,serif" font-size="14.00">6</text>
<polyline fill="none" stroke="black" points="307,-0.5 307,-23.5 "/>
<text text-anchor="middle" x="318.5" y="-8.3" font-family="Times,serif" font-size="14.00">5</text>
</g>
<!-- 4909663040&#45;&gt;4909663232 -->
<g id="edge7" class="edge">
<title>4909663040&#45;&gt;4909663232</title>
<path fill="none" stroke="black" d="M295.5,-106.23C295.5,-97.79 295.5,-88.62 295.5,-79.77"/>
<polygon fill="black" stroke="black" points="299,-79.6 295.5,-69.6 292,-79.6 299,-79.6"/>
</g>
<!-- 4909663328 -->
<g id="node9" class="node">
<title>4909663328</title>
<polygon fill="none" stroke="black" points="348,-0.5 348,-69.5 417,-69.5 417,-0.5 348,-0.5"/>
<text text-anchor="middle" x="359.5" y="-54.3" font-family="Times,serif" font-size="14.00">1</text>
<polyline fill="none" stroke="black" points="371,-46.5 371,-69.5 "/>
<text text-anchor="middle" x="382.5" y="-54.3" font-family="Times,serif" font-size="14.00">0</text>
<polyline fill="none" stroke="black" points="394,-46.5 394,-69.5 "/>
<text text-anchor="middle" x="405.5" y="-54.3" font-family="Times,serif" font-size="14.00">2</text>
<polyline fill="none" stroke="black" points="348,-46.5 417,-46.5 "/>
<text text-anchor="middle" x="359.5" y="-31.3" font-family="Times,serif" font-size="14.00">4</text>
<polyline fill="none" stroke="black" points="371,-23.5 371,-46.5 "/>
<text text-anchor="middle" x="382.5" y="-31.3" font-family="Times,serif" font-size="14.00">8</text>
<polyline fill="none" stroke="black" points="394,-23.5 394,-46.5 "/>
<text text-anchor="middle" x="405.5" y="-31.3" font-family="Times,serif" font-size="14.00">3</text>
<polyline fill="none" stroke="black" points="348,-23.5 417,-23.5 "/>
<text text-anchor="middle" x="359.5" y="-8.3" font-family="Times,serif" font-size="14.00">7</text>
<polyline fill="none" stroke="black" points="371,-0.5 371,-23.5 "/>
<text text-anchor="middle" x="382.5" y="-8.3" font-family="Times,serif" font-size="14.00">6</text>
<polyline fill="none" stroke="black" points="394,-0.5 394,-23.5 "/>
<text text-anchor="middle" x="405.5" y="-8.3" font-family="Times,serif" font-size="14.00">5</text>
</g>
<!-- 4909663040&#45;&gt;4909663328 -->
<g id="edge8" class="edge">
<title>4909663040&#45;&gt;4909663328</title>
<path fill="none" stroke="black" d="M323.75,-106.23C331.42,-97.06 339.82,-87.02 347.81,-77.47"/>
<polygon fill="black" stroke="black" points="350.66,-79.51 354.4,-69.6 345.29,-75.02 350.66,-79.51"/>
</g>
<!-- 4909662848 -->
<g id="node10" class="node">
<title>4909662848</title>
<polygon fill="none" stroke="black" points="435,-0.5 435,-69.5 504,-69.5 504,-0.5 435,-0.5"/>
<text text-anchor="middle" x="446.5" y="-54.3" font-family="Times,serif" font-size="14.00">8</text>
<polyline fill="none" stroke="black" points="458,-46.5 458,-69.5 "/>
<text text-anchor="middle" x="469.5" y="-54.3" font-family="Times,serif" font-size="14.00">0</text>
<polyline fill="none" stroke="black" points="481,-46.5 481,-69.5 "/>
<text text-anchor="middle" x="492.5" y="-54.3" font-family="Times,serif" font-size="14.00">2</text>
<polyline fill="none" stroke="black" points="435,-46.5 504,-46.5 "/>
<text text-anchor="middle" x="446.5" y="-31.3" font-family="Times,serif" font-size="14.00">1</text>
<polyline fill="none" stroke="black" points="458,-23.5 458,-46.5 "/>
<text text-anchor="middle" x="469.5" y="-31.3" font-family="Times,serif" font-size="14.00">4</text>
<polyline fill="none" stroke="black" points="481,-23.5 481,-46.5 "/>
<text text-anchor="middle" x="492.5" y="-31.3" font-family="Times,serif" font-size="14.00">3</text>
<polyline fill="none" stroke="black" points="435,-23.5 504,-23.5 "/>
<text text-anchor="middle" x="446.5" y="-8.3" font-family="Times,serif" font-size="14.00">7</text>
<polyline fill="none" stroke="black" points="458,-0.5 458,-23.5 "/>
<text text-anchor="middle" x="469.5" y="-8.3" font-family="Times,serif" font-size="14.00">6</text>
<polyline fill="none" stroke="black" points="481,-0.5 481,-23.5 "/>
<text text-anchor="middle" x="492.5" y="-8.3" font-family="Times,serif" font-size="14.00">5</text>
</g>
<!-- 4909663712&#45;&gt;4909662848 -->
<g id="edge9" class="edge">
<title>4909663712&#45;&gt;4909662848</title>
<path fill="none" stroke="black" d="M439.79,-106.23C443.47,-97.52 447.49,-88.02 451.35,-78.91"/>
<polygon fill="black" stroke="black" points="454.61,-80.17 455.29,-69.6 448.17,-77.44 454.61,-80.17"/>
</g>
</g>
</svg>
